<mxfile host="app.diagrams.net" modified="2022-12-17T15:01:04.710Z" agent="5.0 (Windows NT 10.0; Win64; x64) AppleWebKit/537.36 (KHTML, like Gecko) Chrome/108.0.0.0 Safari/537.36" etag="X-wMB_dmuML1tQSai30G" version="20.7.4" type="github">
  <diagram name="Page-1" id="929967ad-93f9-6ef4-fab6-5d389245f69c">
    <mxGraphModel dx="955" dy="521" grid="1" gridSize="10" guides="1" tooltips="1" connect="1" arrows="1" fold="1" page="1" pageScale="1.5" pageWidth="1169" pageHeight="826" background="none" math="0" shadow="0">
      <root>
        <mxCell id="0" style=";html=1;" />
        <mxCell id="1" style=";html=1;" parent="0" />
        <mxCell id="1672d66443f91eb5-23" value="Title" style="text;strokeColor=none;fillColor=none;html=1;fontSize=24;fontStyle=1;verticalAlign=middle;align=center;" parent="1" vertex="1">
          <mxGeometry x="120" y="40" width="1510" height="40" as="geometry" />
        </mxCell>
        <mxCell id="QiTBZlBaSIu3kNUicgwa-2" value="User Guest" style="shape=umlActor;verticalLabelPosition=bottom;verticalAlign=top;html=1;outlineConnect=0;" vertex="1" parent="1">
          <mxGeometry x="200" y="380" width="30" height="60" as="geometry" />
        </mxCell>
        <mxCell id="QiTBZlBaSIu3kNUicgwa-5" value="" style="shape=folder;spacingTop=10;tabWidth=100;tabHeight=25;tabPosition=left;html=1;dashed=1;fillColor=#f5f5f5;fontColor=#333333;strokeColor=#666666;" vertex="1" parent="1">
          <mxGeometry x="300" y="330" width="400" height="345" as="geometry" />
        </mxCell>
        <mxCell id="QiTBZlBaSIu3kNUicgwa-6" value="Download&lt;br&gt;CV" style="ellipse;whiteSpace=wrap;html=1;" vertex="1" parent="1">
          <mxGeometry x="320" y="370" width="120" height="80" as="geometry" />
        </mxCell>
        <mxCell id="QiTBZlBaSIu3kNUicgwa-7" value="Open a project" style="ellipse;whiteSpace=wrap;html=1;" vertex="1" parent="1">
          <mxGeometry x="320" y="560" width="120" height="80" as="geometry" />
        </mxCell>
        <mxCell id="QiTBZlBaSIu3kNUicgwa-9" value="Contact" style="ellipse;whiteSpace=wrap;html=1;" vertex="1" parent="1">
          <mxGeometry x="320" y="462.5" width="120" height="80" as="geometry" />
        </mxCell>
        <mxCell id="QiTBZlBaSIu3kNUicgwa-10" style="edgeStyle=orthogonalEdgeStyle;rounded=0;orthogonalLoop=1;jettySize=auto;html=1;" edge="1" parent="1" source="QiTBZlBaSIu3kNUicgwa-2" target="QiTBZlBaSIu3kNUicgwa-6">
          <mxGeometry relative="1" as="geometry">
            <Array as="points" />
          </mxGeometry>
        </mxCell>
        <mxCell id="QiTBZlBaSIu3kNUicgwa-11" value="&lt;b&gt;PortfolioALPHA&lt;/b&gt;" style="text;html=1;strokeColor=none;fillColor=none;align=center;verticalAlign=middle;whiteSpace=wrap;rounded=0;" vertex="1" parent="1">
          <mxGeometry x="301" y="333" width="100" height="20" as="geometry" />
        </mxCell>
        <mxCell id="QiTBZlBaSIu3kNUicgwa-17" value="Open external&lt;br&gt;Email service" style="ellipse;whiteSpace=wrap;html=1;" vertex="1" parent="1">
          <mxGeometry x="550" y="462.5" width="120" height="80" as="geometry" />
        </mxCell>
        <mxCell id="QiTBZlBaSIu3kNUicgwa-27" value="Project Webpage&lt;br&gt;and details" style="ellipse;whiteSpace=wrap;html=1;" vertex="1" parent="1">
          <mxGeometry x="550" y="560" width="120" height="80" as="geometry" />
        </mxCell>
        <mxCell id="QiTBZlBaSIu3kNUicgwa-30" value="DownloadCV" style="ellipse;whiteSpace=wrap;html=1;" vertex="1" parent="1">
          <mxGeometry x="550" y="370" width="120" height="80" as="geometry" />
        </mxCell>
        <mxCell id="QiTBZlBaSIu3kNUicgwa-32" style="edgeStyle=orthogonalEdgeStyle;rounded=0;orthogonalLoop=1;jettySize=auto;html=1;entryX=0;entryY=0.5;entryDx=0;entryDy=0;" edge="1" parent="1" target="QiTBZlBaSIu3kNUicgwa-9">
          <mxGeometry relative="1" as="geometry">
            <mxPoint x="260" y="420" as="sourcePoint" />
            <mxPoint x="330.0000000000001" y="420" as="targetPoint" />
            <Array as="points">
              <mxPoint x="260" y="503" />
            </Array>
          </mxGeometry>
        </mxCell>
        <mxCell id="QiTBZlBaSIu3kNUicgwa-33" style="edgeStyle=orthogonalEdgeStyle;rounded=0;orthogonalLoop=1;jettySize=auto;html=1;" edge="1" parent="1" target="QiTBZlBaSIu3kNUicgwa-7">
          <mxGeometry x="0.1583" y="-83" relative="1" as="geometry">
            <mxPoint x="260" y="410" as="sourcePoint" />
            <mxPoint x="280" y="620" as="targetPoint" />
            <Array as="points">
              <mxPoint x="260" y="600" />
            </Array>
            <mxPoint x="-30" y="-6" as="offset" />
          </mxGeometry>
        </mxCell>
        <mxCell id="QiTBZlBaSIu3kNUicgwa-43" value="&amp;lt;&amp;lt;extend&amp;gt;&amp;gt;" style="edgeStyle=none;html=1;startArrow=open;endArrow=none;startSize=12;verticalAlign=bottom;dashed=1;labelBackgroundColor=none;rounded=0;" edge="1" parent="1">
          <mxGeometry width="160" relative="1" as="geometry">
            <mxPoint x="440" y="409.55" as="sourcePoint" />
            <mxPoint x="550" y="410" as="targetPoint" />
          </mxGeometry>
        </mxCell>
        <mxCell id="QiTBZlBaSIu3kNUicgwa-45" value="&amp;lt;&amp;lt;include&amp;gt;&amp;gt;" style="edgeStyle=none;html=1;endArrow=open;verticalAlign=bottom;dashed=1;labelBackgroundColor=none;rounded=0;entryX=0;entryY=0.5;entryDx=0;entryDy=0;" edge="1" parent="1" target="QiTBZlBaSIu3kNUicgwa-17">
          <mxGeometry width="160" relative="1" as="geometry">
            <mxPoint x="440" y="502.05" as="sourcePoint" />
            <mxPoint x="600" y="502.05" as="targetPoint" />
          </mxGeometry>
        </mxCell>
        <mxCell id="QiTBZlBaSIu3kNUicgwa-46" value="&amp;lt;&amp;lt;include&amp;gt;&amp;gt;" style="edgeStyle=none;html=1;endArrow=open;verticalAlign=bottom;dashed=1;labelBackgroundColor=none;rounded=0;entryX=0;entryY=0.5;entryDx=0;entryDy=0;" edge="1" parent="1">
          <mxGeometry width="160" relative="1" as="geometry">
            <mxPoint x="440" y="599.55" as="sourcePoint" />
            <mxPoint x="550" y="600" as="targetPoint" />
          </mxGeometry>
        </mxCell>
      </root>
    </mxGraphModel>
  </diagram>
</mxfile>
